<svg width="1920" height="216" viewBox="0 0 1920 216" fill="none" xmlns="http://www.w3.org/2000/svg">
<path d="M1937 20.39C1932.91 21.18 1927.06 22.26 1920 23.39C1905.99 25.62 1895.32 26.74 1889 27.39C1863.56 30.01 1850.84 31.31 1837 32.39C1712.78 42.04 1652 44.39 1652 44.39C1583.7 47.03 1531.51 49.04 1461 46.39C1438.6 45.55 1439.44 45.18 1303 35.39C1174.49 26.17 1162.75 25.71 1150 25.39C1127.3 24.82 1059 23.6 971 31.39C890.05 38.55 830.84 49.93 767 62.39C673.02 80.73 670.92 85.6 550 112.39C425.55 139.96 336.64 155 274 164.39C196.27 176.05 150.11 180.34 105 182.39C53.41 184.73 10.11 183.81 -21 182.39C-21 198.74 -21 215.08 -21 231.43C630.33 231.43 1281.67 231.43 1933 231.43C1934.33 161.08 1935.67 90.74 1937 20.39Z" fill="#EFF1F3"/>
</svg>
