<svg version="1.1" xmlns="http://www.w3.org/2000/svg" x="0px" y="0px" viewBox="0 0 1920 215" preserveAspectRatio="xMinYMin">
							<path fill="#EFF1F3" d="M-17,20c4.09,0.79,9.94,1.87,17,3c14.01,2.23,24.68,3.35,31,4c25.44,2.62,38.16,3.92,52,5
								c124.22,9.65,185,12,185,12c68.3,2.64,120.49,4.65,191,2c22.4-0.84,21.56-1.21,158-11c128.51-9.22,140.25-9.68,153-10
								c22.7-0.57,91-1.79,179,6c80.95,7.16,140.16,18.54,204,31c93.98,18.34,96.08,23.21,217,50c124.45,27.57,213.36,42.61,276,52
								c77.73,11.66,123.89,15.95,169,18c51.59,2.34,94.89,1.42,126,0c0,16.35,0,32.69,0,49.04c-651.33,0-1302.67,0-1954,0
								C-14.33,160.69-15.67,90.35-17,20z"></path>
						</svg>