<svg width="1942" height="225" viewBox="0 0 1942 225" fill="none" xmlns="http://www.w3.org/2000/svg">
<path d="M0 24.3901C3.03 24.1101 7.53 23.7301 13 23.3901C39.45 21.7401 59.73 22.8001 70 23.3901C146.61 27.8001 188 32.3901 188 32.3901C258.55 40.2201 293.82 44.1301 339 51.3901C371.98 56.6901 404.87 62.8301 518 88.3901C663.79 121.33 656.71 121.89 721 135.39C806.09 153.26 870.08 166.71 958 175.39C1071.11 186.56 1161.29 183.68 1192 182.39C1208.74 181.69 1255.49 178.26 1349 171.39C1456.74 163.48 1466.84 162.07 1502 161.39C1554.52 160.37 1599.8 162.18 1655 164.39C1676.27 165.24 1709.96 166.77 1751 169.39C1788.55 171.79 1819.64 174.3 1870 178.39C1900.97 180.91 1926.12 183.03 1942 184.39C1942 197.72 1942 211.06 1942 224.39C1296 224.39 650 224.39 4 224.39C2.67 157.72 1.33 91.0601 0 24.3901Z" fill="white"/>
</svg>
